<?xml version="1.0" encoding="utf-8"?>
<!-- Generator: Adobe Illustrator 24.0.1, SVG Export Plug-In . SVG Version: 6.00 Build 0)  -->
<svg version="1.1" xmlns="http://www.w3.org/2000/svg" xmlns:xlink="http://www.w3.org/1999/xlink" x="0px" y="0px"
	 viewBox="0 0 500 500" style="enable-background:new 0 0 500 500;" xml:space="preserve">
<style type="text/css">
	.st0{fill:#006B33;}
	.st1{fill:#098441;}
	.st2{fill:#005B22;}
	.st3{fill:#FFFFFF;}
	.st4{fill:#F4F4F4;}
	.st5{fill:#EFEFEF;}
	.st6{opacity:0.6;fill:url(#SVGID_1_);}
	.st7{fill:#DADCDB;}
	.st8{fill:#BEC0BF;}
	.st9{opacity:0.4;fill:url(#SVGID_2_);}
	.st10{fill:#AEAEAE;}
	.st11{fill:#E8E8E8;}
	.st12{fill:#D6D6D6;}
	.st13{fill:#007233;}
	.st14{opacity:0.6;fill:url(#SVGID_3_);}
	.st15{fill:#0F7C40;}
	.st16{fill:#00662C;}
	.st17{opacity:0.4;fill:url(#SVGID_4_);}
	.st18{fill:#0C9138;}
	.st19{fill:#008831;}
	.st20{fill:#0F8243;}
</style>
<g id="OBJECTS">
	<g>
		<path class="st0" d="M319,219.5h89.3c4.5,0,8.2,3.7,8.2,8.2v8.7c0,4.5-3.7,8.2-8.2,8.2H319c-4.5,0-8.2-3.7-8.2-8.2v-8.7
			C310.9,223.2,314.5,219.5,319,219.5z"/>
		<rect x="319.3" y="227.1" class="st1" width="88.9" height="9.9"/>
		<rect x="319.3" y="231.1" class="st2" width="85.7" height="3"/>
	</g>
	<g>
		
			<image style="overflow:visible;opacity:0.25;" width="1259" height="1247" xlink:href="AA5BBD8D.png"  transform="matrix(0.24 0 0 0.24 107.76 130.08)">
		</image>
		<g>
			<g>
				<g>
					<g>
						<path class="st3" d="M297.3,280.3V136.2H155.5c-19.7,0-35.7,16-35.7,35.7v233.3l8.3,6l9.2-6.7l9.2,6.7l9.2-6.7l9.2,6.7
							l9.2-6.7l9.2,6.7l9.2-6.7l9.2,6.7l9.2-6.7l9.2,6.7l9.2-6.7l9.2,6.7l9.2-6.7l9.2,6.7l7.7-5.6V280.3H297.3z"/>
					</g>
					<g>
						<path class="st4" d="M364.3,280.3L364.3,280.3c18.5,0,33.5-15,33.5-33.5v-15.8h-66.9v15.8
							C330.8,265.3,345.8,280.3,364.3,280.3z"/>
						<path class="st5" d="M340.1,246.9v-15.8h-9.3v15.8c0,18.5,15,33.5,33.5,33.5h0c1.6,0,3.1-0.1,4.7-0.3
							C352.7,277.7,340.1,263.8,340.1,246.9z"/>
						<linearGradient id="SVGID_1_" gradientUnits="userSpaceOnUse" x1="364.2621" y1="241.4403" x2="364.2621" y2="231.0651">
							<stop  offset="0" style="stop-color:#FFFFFF;stop-opacity:0"/>
							<stop  offset="1" style="stop-color:#5F5F5E;stop-opacity:0.5656"/>
						</linearGradient>
						<rect x="330.8" y="231.1" class="st6" width="66.9" height="10.4"/>
					</g>
					<g>
						<path class="st7" d="M366,280.3H263.9v-35.7h66.6c0,19.6,15.9,35.6,35.6,35.6V280.3z"/>
						<path class="st7" d="M297.3,136.2L297.3,136.2c-18.5,0-33.5,15-33.5,33.5v110.7h66.9V169.6
							C330.8,151.1,315.8,136.2,297.3,136.2z"/>
						<path class="st8" d="M303.2,136.7c-1.9-0.3-3.8-0.5-5.8-0.5h0c-18.5,0-33.5,15-33.5,33.5v110.7h11.7V169.6
							C275.5,153.1,287.5,139.4,303.2,136.7z"/>
						<linearGradient id="SVGID_2_" gradientUnits="userSpaceOnUse" x1="297.3231" y1="204.0936" x2="297.3231" y2="136.1509">
							<stop  offset="0" style="stop-color:#FFFFFF;stop-opacity:0"/>
							<stop  offset="1" style="stop-color:#5F5F5E;stop-opacity:0.5656"/>
						</linearGradient>
						<path class="st9" d="M330.8,169.6c0-18.5-15-33.5-33.5-33.5h0c-18.5,0-33.5,15-33.5,33.5v34.5h66.9V169.6z"/>
					</g>
				</g>
				<g>
					<rect x="146.9" y="204.1" class="st10" width="97" height="6"/>
					<rect x="146.9" y="334" class="st10" width="100.6" height="2.4"/>
					<rect x="146.9" y="216.5" class="st10" width="100.6" height="2.4"/>
					<rect x="147.1" y="225.4" class="st7" width="57.1" height="10.6"/>
					<rect x="147.1" y="274.7" class="st7" width="24.6" height="10.6"/>
					<rect x="147.1" y="319.9" class="st8" width="35.4" height="5.3"/>
					<rect x="212.2" y="319.9" class="st8" width="35.4" height="5.3"/>
					<rect x="147.1" y="250" class="st7" width="40.1" height="10.6"/>
					<rect x="223" y="274.7" class="st7" width="24.6" height="10.6"/>
					<rect x="207.5" y="250" class="st7" width="40.1" height="10.6"/>
					<rect x="146.9" y="341.6" class="st10" width="100.6" height="6"/>
					<rect x="214.7" y="364.1" class="st8" width="32.8" height="8.7"/>
				</g>
				<g>
					<path class="st0" d="M165.9,180.4c0,2.1-1.6,3.3-4.8,3.3h-6.2v-12h5.9c3,0,4.5,1.3,4.5,3.1c0,1.2-0.6,2.1-1.6,2.6
						C165,177.8,165.9,178.9,165.9,180.4z M157.6,173.7v2.8h2.8c1.4,0,2.1-0.5,2.1-1.4c0-0.9-0.7-1.4-2.1-1.4H157.6z M163.1,180.1
						c0-1-0.8-1.5-2.2-1.5h-3.2v3h3.2C162.3,181.6,163.1,181.1,163.1,180.1z"/>
					<path class="st0" d="M170,177.7c0-3.6,2.8-6.2,6.6-6.2c3.8,0,6.6,2.6,6.6,6.2c0,3.6-2.8,6.2-6.6,6.2
						C172.7,183.9,170,181.2,170,177.7z M180.3,177.7c0-2.3-1.6-3.8-3.8-3.8c-2.1,0-3.8,1.6-3.8,3.8c0,2.3,1.6,3.8,3.8,3.8
						C178.7,181.5,180.3,179.9,180.3,177.7z"/>
					<path class="st0" d="M187.9,171.7h2.8v9.7h6v2.3h-8.8V171.7z"/>
					<path class="st0" d="M210.3,181.4v2.2H201v-12h9.1v2.2h-6.3v2.6h5.6v2.2h-5.6v2.8H210.3z"/>
					<path class="st0" d="M217.7,173.9h-3.8v-2.3h10.5v2.3h-3.8v9.7h-2.8V173.9z"/>
					<path class="st0" d="M227.6,177.7c0-3.6,2.8-6.2,6.6-6.2c3.8,0,6.6,2.6,6.6,6.2c0,3.6-2.8,6.2-6.6,6.2
						C230.4,183.9,227.6,181.2,227.6,177.7z M237.9,177.7c0-2.3-1.6-3.8-3.8-3.8c-2.1,0-3.8,1.6-3.8,3.8c0,2.3,1.6,3.8,3.8,3.8
						C236.3,181.5,237.9,179.9,237.9,177.7z"/>
				</g>
			</g>
		</g>
	</g>
</g>
<g id="OBJECTS_cópia">
</g>
</svg>
